<?xml version="1.0" encoding="utf-8"?>
<!-- Generator: Adobe Illustrator 22.0.1, SVG Export Plug-In . SVG Version: 6.00 Build 0)  -->
<svg version="1.1" id="Layer_1" xmlns="http://www.w3.org/2000/svg" xmlns:xlink="http://www.w3.org/1999/xlink" x="0px" y="0px"
	 viewBox="0 0 1004 332.5" style="enable-background:new 0 0 1004 332.5;" xml:space="preserve">
<style type="text/css">
	.st0{clip-path:url(#SVGID_4_);fill:#FFFFFF;}
	.st1{clip-path:url(#SVGID_4_);fill:#0066FF;}
	.st2{clip-path:url(#SVGID_4_);fill:#FF7BAC;}
</style>
<g>
	<defs>
		<rect id="SVGID_1_" x="-520.5" y="-334.5" width="2000" height="1000"/>
	</defs>
	<clipPath id="SVGID_2_">
		<use xlink:href="#SVGID_1_"  style="overflow:visible;"/>
	</clipPath>
</g>
<g>
	<defs>
		<rect id="SVGID_3_" x="-520.5" y="-334.5" width="2000" height="1000"/>
	</defs>
	<clipPath id="SVGID_4_">
		<use xlink:href="#SVGID_3_"  style="overflow:visible;"/>
	</clipPath>
	<path class="st0" d="M675.6,114.6c0.1-3.3-0.1-6.6-0.4-9.8v15.8C675.4,118.7,675.6,116.7,675.6,114.6"/>
	<path class="st1" d="M975.3,60.4c-9.8-16.3-23.6-29.2-41.4-38.6C916,12.4,895.7,7.7,872.8,7.7c-22.2,0-42.2,4.7-60.2,14.1
		c-18,9.4-32.1,22.3-42.4,38.6c-10.3,16.3-15.6,34.4-15.9,54.2c0.2,19.6,5.4,37.6,15.5,54.1c10.1,16.4,24,29.4,41.8,39
		c17.8,9.6,37.8,14.3,60,14.3c22.4,0,42.6-4.8,60.5-14.3c18-9.5,32-22.5,42.2-39c10.2-16.4,15.4-34.4,15.7-54.1
		C990,94.8,985.1,76.7,975.3,60.4 M926,146c-5.5,9.4-13.1,16.9-22.7,22.3c-9.7,5.5-20.6,8.2-32.9,8.2c-12,0-22.7-2.7-32.3-8.2
		c-9.5-5.5-16.9-12.9-22-22.3c-5.1-9.4-7.5-19.9-7.3-31.3c0.2-11.5,3.2-22,8.8-31.5c5.6-9.6,13.2-17.1,22.9-22.5
		c9.7-5.5,20.6-8.2,32.9-8.2c12.2,0,23,2.7,32.3,8.2c9.3,5.5,16.5,12.9,21.6,22.3c5.1,9.4,7.5,20,7.3,31.7
		C934.4,126.1,931.5,136.6,926,146"/>
	<path class="st2" d="M442.8,256H314.2c-10.2,0-18.5,8.3-18.5,18.5v6.9c0,10.2,8.3,18.5,18.5,18.5h128.6c10.2,0,18.5-8.3,18.5-18.5
		v-6.9C461.3,264.3,453,256,442.8,256"/>
	<path class="st1" d="M721.7,14.9H685c-5.4,0-9.7,4.4-9.7,9.7v20.4c0,0,0,0.1,0,0.1c0.1,0.2,0.2,0.4,0.4,0.5
		c-0.1-0.1-0.4-0.1-0.4,0.2v-0.7c0,0,0-0.1,0-0.1c-6.5-9.3-14.3-17.1-23.4-23.3c-13.9-9.4-29.5-14.1-46.8-14.1
		c-17.1,0-33,4.7-47.9,14.1c-14.9,9.4-26.9,22.3-36.1,38.6c-9.2,16.3-14,34.3-14.5,53.9c-0.5,19.4,3.2,37.3,11.1,53.9
		c7.9,16.6,18.8,29.7,32.9,39.3c14,9.7,29.7,14.5,47,14.5c17.1,0,33-4.8,47.8-14.5c12-7.9,22-18,30.1-30.3c0,0,0-0.1,0-0.1v0.1
		c0.2-0.4,0.5-0.7,0.7-1.1c-0.2,0.3-0.4,0.7-0.6,1c0,0,0,0.1,0,0.1v38.7c-0.3,18.3-4.7,33-13.4,43.9c-8.7,10.9-21,16.6-37.1,16.8
		c-9.7,0-18.9-2.7-27.7-8.2c-6.9-4.3-13.1-9.9-18.7-16.7c-2.8-3.4-7.5-4.6-11.5-2.8l-28.6,12.9c-5.6,2.5-7.4,9.5-4,14.5
		c9.5,13.8,21.3,24.7,35.3,32.7c17.2,9.8,36.5,14.7,57.9,14.7c21.6,0,40.2-4.7,55.8-14.1c15.5-9.4,27.4-22.7,35.5-39.7
		c8.1-17.1,12.3-36.9,12.6-59.6V24.7C731.4,19.3,727,14.9,721.7,14.9 M669.5,142.6c-0.8,1.8-1.7,3.7-2.7,5.4
		c-5.6,10.1-12.9,17.9-22,23.5c-9,5.6-18.8,8.4-29.2,8.4c-10.4,0-20-2.9-28.7-8.6c-8.7-5.7-15.3-13.5-20.1-23.3
		c-4.7-9.8-6.9-20.8-6.7-33c0.3-12.2,3.2-23.4,8.8-33.4c5.6-10.1,12.9-18,22-23.9c9-5.9,18.8-8.8,29.2-8.8c10.4,0,19.9,2.9,28.5,8.6
		c8.5,5.7,15.2,13.6,20.1,23.7C680.5,114,670.7,139.8,669.5,142.6 M684,60.4c0,0,0-0.1-0.1-0.1C684,60.3,684,60.4,684,60.4
		c6.3,13.4,9.8,27.8,10.6,43.4C693.8,88.2,690.3,73.7,684,60.4"/>
	<path class="st1" d="M221.1,14.9H184c-5.4,0-9.7,4.4-9.7,9.7v79.8c0,0.1,0,0.3,0,0.5v4.4c-0.1,2.7-0.4,5.6-0.5,7.1
		c-1.4,9.2-4,17.6-7.9,25.1c-5.9,11.3-13.7,20.1-23.5,26.2c-9.8,6.1-20.7,9.2-32.7,9.2c-13.5,0-23.8-4.3-30.9-12.8
		c-7.1-8.5-10.7-19.8-10.7-33.8V24.7c0-5.4-4.4-9.7-9.7-9.7H20.8c-5.4,0-9.7,4.4-9.7,9.7v106.8c0,29.5,6.7,52,20.2,67.4
		C44.8,214.3,64.2,222,89.4,222c18.3,0,35.3-4.7,51-14.1c13.6-8.2,24.8-19.3,33.8-33.3v115.7c0,5.4,4.4,9.7,9.7,9.7h37.1
		c5.4,0,9.7-4.4,9.7-9.7V24.7C230.8,19.3,226.4,14.9,221.1,14.9 M176,108.8c-0.1,0.1-0.2,0.2-0.2,0.3c0,0,0,0,0,0
		C175.9,108.9,176,108.8,176,108.8 M175,172.1L175,172.1c0.9-1.4,1.7-2.8,2.5-4.2C176.7,169.4,175.8,170.8,175,172.1"/>
	<path class="st1" d="M469,14.9H432c-5.4,0-9.7,4.4-9.7,9.7v80.6l-0.3,10.2c-1.4,9.5-4,18.2-8.1,26c-5.9,11.3-13.7,20.1-23.5,26.2
		c-9.8,6.1-20.7,9.2-32.7,9.2c-13.5,0-23.8-4.3-30.9-12.8c-7.1-8.5-10.7-19.8-10.7-33.8V24.7c0-5.4-4.4-9.7-9.7-9.7h-37.5
		c-5.4,0-9.7,4.4-9.7,9.7v106.8c0,29.5,6.7,52,20.2,67.4c13.5,15.4,32.9,23.1,58.1,23.1c18.3,0,35.3-4.7,51-14.1
		c13.5-8.1,24.8-19.2,33.7-33.2V205c0,5.4,4.4,9.7,9.7,9.7H469c5.4,0,9.7-4.4,9.7-9.7V24.7C478.8,19.3,474.4,14.9,469,14.9
		 M425.2,107.7c0,0,0.1,0,0.1-0.1C425.3,107.7,425.3,107.7,425.2,107.7L425.2,107.7z M423.1,172L423.1,172c0.8-1.3,1.6-2.7,2.4-4
		C424.7,169.3,423.9,170.6,423.1,172"/>
</g>
<g>
	<defs>
		<rect id="SVGID_5_" x="-520.5" y="-334.5" width="2000" height="1000"/>
	</defs>
	<clipPath id="SVGID_6_">
		<use xlink:href="#SVGID_5_"  style="overflow:visible;"/>
	</clipPath>
</g>
<g>
	<defs>
		<rect id="SVGID_7_" x="-520.5" y="-334.5" width="2000" height="1000"/>
	</defs>
	<clipPath id="SVGID_8_">
		<use xlink:href="#SVGID_7_"  style="overflow:visible;"/>
	</clipPath>
</g>
<g>
	<defs>
		<rect id="SVGID_9_" x="-520.5" y="-334.5" width="2000" height="1000"/>
	</defs>
	<clipPath id="SVGID_10_">
		<use xlink:href="#SVGID_9_"  style="overflow:visible;"/>
	</clipPath>
</g>
</svg>
