<?xml version="1.0" encoding="utf-8"?>
<!-- Generator: Adobe Illustrator 22.0.1, SVG Export Plug-In . SVG Version: 6.00 Build 0)  -->
<svg version="1.1" id="Layer_1" xmlns="http://www.w3.org/2000/svg" xmlns:xlink="http://www.w3.org/1999/xlink" x="0px" y="0px"
	 viewBox="0 0 236 230" style="enable-background:new 0 0 236 230;" xml:space="preserve">
<style type="text/css">
	.st0{fill:#00224F;}
</style>
<path class="st0" d="M6,153.2c0-0.1,0-0.2,0-0.2c0.7-2.4,1.9-4.5,3-6.7c2.8-5.9,5.5-11.7,8.3-17.6c1.9-4.1,3.8-8.1,5.8-12.2
	c0.3-0.7,0.3-1.3,0-2c-2.8-5.8-5.5-11.6-8.2-17.4C12,91.2,9.2,85.3,6.5,79.4C6.3,79,6.2,78.5,6,78c0-0.1,0-0.2,0-0.2
	c0.4-0.4,0.9-0.3,1.4-0.3c6.5,0,13.1,0,19.6,0c1,0,1.7,0.3,2.4,1c6.1,5.4,12.2,10.8,18.3,16.2c1.6,1.4,3.2,2.8,4.7,4.2
	c0.7,0.6,1.4,0.8,2.3,0.8c12.2,0,24.3,0,36.5,0c1.3,0,1.3,0,1-1.3c-1.9-6.3-3.9-12.5-5.8-18.8C83,68.8,79.6,58,76.3,47.2
	C74,40,71.8,32.8,69.6,25.6c-1.4-4.4-2.8-8.8-4.1-13.2c-0.1-0.4-0.6-1,0.1-1.3c7.2,0,14.4,0,21.6,0c0.6-0.1,0.9,0.3,1.1,0.8
	c4.6,8.2,9.2,16.4,13.8,24.6c3.9,6.9,7.8,13.8,11.6,20.7c4.8,8.6,9.6,17.2,14.5,25.8c2.9,5.1,5.7,10.2,8.6,15.3
	c0.6,1.1,1.3,1.4,2.5,1.4c17.9,0,35.8,0,53.7,0c6.1,0,12.1,0.6,18,1.8c3.7,0.8,7.2,1.9,10.5,3.8c1,0.6,2,1.2,2.9,2
	c2,1.8,3.6,3.9,3.7,6.7c0,1.1,0,2.1,0,3.2c-0.5,4.3-3.5,6.8-7,8.7c-4.6,2.5-9.7,3.7-14.9,4.5c-3.9,0.6-7.9,1-11.8,1
	c-18.3,0-36.5,0-54.8,0c-1.4,0-2.2,0.4-2.9,1.7c-6.9,12.4-13.8,24.7-20.7,37c-7.3,12.9-14.5,25.9-21.8,38.8
	c-1.9,3.4-3.8,6.7-5.6,10.1c-0.3,0.5-0.5,1-1.2,1.1c-7.2,0-14.4,0-21.6,0c-0.8-0.3-0.3-0.8-0.2-1.2c0.7-2.7,1.6-5.3,2.4-7.9
	c4.2-13.4,8.4-26.9,12.5-40.3c3-9.6,6-19.2,9-28.9c1-3.1,1.9-6.1,2.8-9.2c0.3-1,0.2-1.1-0.8-1.1c-12.3,0-24.6,0-36.9,0
	c-0.9,0-1.5,0.3-2.1,0.9c-3,2.7-6,5.3-9,8c-3.7,3.3-7.5,6.7-11.3,10c-1,0.8-1.9,1.7-2.9,2.6c-0.6,0.5-1.2,0.8-1.9,0.8
	c-6.7,0-13.4,0-20.2,0C6.8,153.6,6.3,153.6,6,153.2z"/>
</svg>
