<?xml version="1.0" encoding="utf-8"?>
<!-- Generator: Adobe Illustrator 22.0.1, SVG Export Plug-In . SVG Version: 6.00 Build 0)  -->
<svg version="1.1" id="Layer_1" xmlns="http://www.w3.org/2000/svg" xmlns:xlink="http://www.w3.org/1999/xlink" x="0px" y="0px"
	 viewBox="0 0 144.5 224.5" style="enable-background:new 0 0 144.5 224.5;" xml:space="preserve">
<style type="text/css">
	.st0{fill:#00224F;}
</style>
<g>
	<path class="st0" d="M111.1,5.6c0-0.1,0-0.2,0-0.3c0.8,0,1.7,0,2.5,0C112.9,5.9,112,5.5,111.1,5.6z"/>
	<path class="st0" d="M130.4,38.8c-2.7-0.1-5.4,0-8,0c-2.7,0-2.7,0-2.8-2.8c0-7.8,0-15.6,0-23.4c0-4.3-1.6-6.3-5.5-7.3h-0.4
		c-0.8,0.4-1.7,0.1-2.5,0.2c-1.1,0.1-2.3,0.1-3.3,0.5C92,11.1,76.2,16,60.3,21c-9.3,2.9-18.6,5.9-28,8.8c-6.4,2-12.8,3.9-19.1,6.1
		C8,37.7,4.4,42.5,4.4,47.8c0,54.7,0,109.4,0,164.1c0,4.3,2.3,7.1,6.6,8.1h121.7c3.6-0.7,5.7-2.9,6.4-6.4V45.7
		C138.1,41.6,134.7,38.9,130.4,38.8z M108,15c0,7.3,0,14.7,0,22c-30.3,1.3-60.7,2.7-91,4C47.3,32.3,77.7,23.7,108,15z M72.2,74.8
		c24.9,0,45.4,20.7,45.4,45.7c0,24.9-20.5,46-46.6,45.6c-24.8-0.4-45.3-20.9-45-46.3C26.4,95.2,46.6,74.8,72.2,74.8z M125.5,198.9
		c-1.1,1.4-2.3,2.1-4.2,2.1c-31.8-0.1-63.6-0.1-95.3,0c-1.6,0-3.1-0.3-4.4-1.1c-1.9-1.1-3.1-2.6-3.1-4.8c0-3.5-0.1-7,0-10.6
		c0.1-3.4,2-5,5.4-5c16.3,0,32.6,0,48.8,0c16.2,0,32.3,0,48.5,0c4,0,5.7,1.8,5.8,5.8c0,3.2,0,6.3,0,9.5
		C126.9,196.3,126.4,197.7,125.5,198.9z"/>
	<path class="st0" d="M60.3,122.5c2.7,0,5.5,0,8.2,0c1,0,1.3,0.3,1.3,1.3c0,5.2,0,10.4,0,15.6c0,1-0.3,1.2-1.2,1.2
		c-4.6,0-9.3,0-13.9,0c-0.8,0-1.2-0.2-1.5-1.1c-1.4-5.2-2.3-10.6-2.5-16c0-1,0.4-1.1,1.2-1.1C54.7,122.5,57.5,122.5,60.3,122.5z"/>
	<path class="st0" d="M60.2,118.4c-2.8,0-5.6,0-8.4,0c-0.8,0-1.1-0.1-1.1-1.1c0.2-5.4,1.1-10.6,2.4-15.8c0.2-0.9,0.6-1.1,1.5-1.1
		c4.6,0,9.3,0,13.9,0c0.9,0,1.2,0.2,1.2,1.2c0,5.2,0,10.4,0,15.6c0,1-0.3,1.2-1.2,1.2C65.7,118.4,62.9,118.4,60.2,118.4z"/>
	<path class="st0" d="M73.9,131.6c0-2.5,0-5.1,0-7.6c0-1,0.2-1.5,1.4-1.5c5.2,0.1,10.4,0,15.5,0c0.8,0,1.3,0.1,1.2,1.2
		c-0.3,5.3-1.1,10.5-2.4,15.6c-0.2,0.9-0.6,1.3-1.6,1.3c-4.2-0.1-8.5-0.1-12.7,0c-1.1,0-1.4-0.2-1.4-1.4
		C74,136.7,73.9,134.1,73.9,131.6C73.9,131.6,73.9,131.6,73.9,131.6z"/>
	<path class="st0" d="M82.9,118.4c-2.6,0-5.1,0-7.7,0c-0.9,0-1.3-0.1-1.3-1.2c0.1-5.2,0-10.3,0-15.5c0-1,0.3-1.3,1.3-1.3
		c4.2,0.1,8.5,0.1,12.7,0c1,0,1.4,0.2,1.7,1.3c1.3,5.1,2.2,10.4,2.4,15.7c0,1-0.3,1.1-1.1,1.1C88.2,118.4,85.6,118.4,82.9,118.4z"/>
	<path class="st0" d="M93.3,140.6c1.5-5.7,2.4-11.4,2.7-17.2c0-0.9,0.4-0.9,1.1-0.9c5,0,10,0,15,0c0.9,0,1.3,0.1,1.3,1.3
		c-0.4,5.7-2,11-4.6,16c-0.3,0.5-0.5,0.8-1.2,0.8C102.9,140.6,98.2,140.6,93.3,140.6z"/>
	<path class="st0" d="M93.3,100.4c4.8,0,9.5,0,14.2,0c0.8,0,1,0.5,1.3,1c2.5,5,4.1,10.2,4.5,15.8c0.1,0.9-0.1,1.1-1,1.1
		c-5.1,0-10.2,0-15.4,0c-0.7,0-1-0.2-1.1-1C95.7,111.7,94.8,106.1,93.3,100.4z"/>
	<path class="st0" d="M49.2,140.6c-4.4,0-8.8,0-13.1,0c-0.6,0-1-0.3-1.2-0.8c-2.6-5-4.1-10.2-4.6-15.8c-0.1-1.2,0.2-1.5,1.4-1.5
		c4.5,0.1,9.1,0.1,13.6,0c1,0,1.5,0.2,1.5,1.4c0,2.8,0.3,5.6,0.8,8.3C48.1,134.9,48.6,137.6,49.2,140.6z"/>
	<path class="st0" d="M49.3,100.4c-1.5,5.7-2.4,11.3-2.6,17.1c0,0.7-0.3,0.9-1,0.9c-4.9,0-9.8,0-14.7,0c-0.7,0-0.9-0.2-0.8-0.9
		c0.3-5.8,2-11.2,4.7-16.3c0.2-0.5,0.5-0.7,1.1-0.7C40.4,100.4,44.8,100.4,49.3,100.4z"/>
	<path class="st0" d="M69.8,87.6c0,2.5,0,5,0,7.5c0,1-0.2,1.4-1.3,1.4c-4.1,0-8.2,0-12.3,0c-1.1,0-1.4-0.2-0.9-1.3
		c2.1-5.2,4.7-10,8-14.5c0.7-0.9,5.2-2,6.1-1.6c0.6,0.3,0.4,0.8,0.4,1.3C69.8,82.7,69.8,85.2,69.8,87.6
		C69.8,87.6,69.8,87.6,69.8,87.6z"/>
	<path class="st0" d="M54.8,144.5c4.8,0,9.3,0,13.8,0c1,0,1.1,0.4,1.1,1.2c0,5,0,10,0,14.9c0,1.1-0.4,1.3-1.5,1.3
		c-3.2,0-5.2-1.3-6.8-4.1C58.9,153.6,56.6,149.4,54.8,144.5z"/>
	<path class="st0" d="M73.9,87.6c0-2.5,0-5,0-7.5c0-0.9,0.2-1.1,1.1-1.1c2.1,0.1,3.9,0.6,5.2,2.6c2.8,4.2,5.2,8.6,7.2,13.3
		c0.5,1.2,0.3,1.5-1,1.5c-3.7-0.1-7.4-0.1-11.1,0c-1.1,0-1.4-0.3-1.4-1.4C73.9,92.5,73.9,90.1,73.9,87.6
		C73.9,87.6,73.9,87.6,73.9,87.6z"/>
	<path class="st0" d="M87.8,144.5c-2.2,6.1-5.1,11.5-9,16.4c-1.1,1.4-3,0.7-4.5,1c-0.5,0.1-0.4-0.6-0.4-1c0-5.2,0-10.3,0-15.5
		c0-0.6,0.1-1,0.9-1C79,144.5,83.4,144.5,87.8,144.5z"/>
	<path class="st0" d="M84.6,81.2c6.1,0.8,17.3,8.9,21,15.3c-2.1,0-4.1,0-6.1,0c-2.1,0-4.2,0-6.3,0c-0.7,0-1.2-0.1-1.5-0.9
		C90,90.5,87.5,85.7,84.6,81.2z"/>
	<path class="st0" d="M84.4,160.1c3.2-5,5.7-9.8,7.4-14.9c0.2-0.7,0.6-0.7,1.2-0.7c4.2,0,8.3,0,12.8,0
		C100.3,152,93.4,157,84.4,160.1z"/>
	<path class="st0" d="M37.9,96.4c4.3-5.8,9.3-10.1,15.4-13.1c1-0.5,2-0.9,3.1-1.4c0.2-0.1,0.5-0.3,0.8-0.1c0.3,0.3,0.1,0.5,0,0.8
		c-2.6,4.1-4.7,8.5-6.3,13.1c-0.2,0.7-0.7,0.7-1.3,0.7C45.8,96.4,42.1,96.4,37.9,96.4z"/>
	<path class="st0" d="M58,159.7c-8.4-3.1-14.9-8-20.2-15.2c1.1,0,2,0,2.8,0c2.9,0,5.8,0,8.8,0c0.7,0,1.2,0,1.5,0.8
		C52.6,150.3,54.9,155,58,159.7z"/>
</g>
</svg>
